<?xml version="1.0" encoding="utf-8"?>
<!-- Svg Vector Icons : http://www.onlinewebfonts.com/icon -->
<!DOCTYPE svg PUBLIC "-//W3C//DTD SVG 1.1//EN" "http://www.w3.org/Graphics/SVG/1.1/DTD/svg11.dtd">
<svg version="1.1" xmlns="http://www.w3.org/2000/svg" xmlns:xlink="http://www.w3.org/1999/xlink" x="0px" y="0px" viewBox="0 0 1000 1000" enable-background="new 0 0 1000 1000" xml:space="preserve">
<metadata> Svg Vector Icons : http://www.onlinewebfonts.com/icon </metadata>
<g><g transform="translate(0.000000,511.000000) scale(0.100000,-0.100000)"><path d="M5126.5,4532.7c-12.2-22.5-38.8-40.9-57.2-40.9c-20.4,0-47-10.2-59.3-22.5c-22.5-22.5-16.3-53.1,38.8-175.7c12.2-22.5,14.3-53.1,8.2-65.4c-18.4-28.6-161.4-28.6-190,0c-14.3,14.3-53.1,16.3-106.2,8.2c-75.6-12.3-79.7-16.3-57.2-53.1c20.4-34.7,16.4-47-36.8-87.9c-32.7-26.6-67.4-45-73.6-40.9c-8.2,4.1-24.5-6.1-38.8-22.5s-38.8-30.6-57.2-30.6c-51.1,0-188-67.4-188-94c0-44.9-51.1-69.5-114.4-51.1c-75.6,20.4-110.3,8.2-110.3-38.8c0-20.4-14.3-42.9-32.7-49c-22.5-8.2-28.6-34.7-24.5-87.9c4.1-63.3,20.4-85.8,83.8-128.7c61.3-38.8,75.6-59.3,65.4-91.9c-8.2-22.5-18.4-85.8-22.5-143c-6.1-55.2-20.4-122.6-34.7-149.2c-16.4-34.7-16.4-57.2,0-83.8c20.4-32.7,16.3-40.9-26.6-61.3c-36.8-16.4-63.3-16.4-91.9,0c-32.7,16.3-53.1,14.3-91.9-12.3c-26.6-18.4-59.3-26.6-71.5-18.4c-12.3,6.1-26.6-6.1-32.7-30.6c-6.1-26.6-28.6-42.9-55.2-42.9c-22.5,0-65.4-18.4-94-40.9c-28.6-22.5-61.3-40.9-71.5-40.9c-12.3,0-42.9-14.3-67.4-32.7l-47-32.7l47-47c44.9-47,47-47,61.3-8.2c22.5,57.2,44.9,49,77.6-26.6c14.3-36.8,30.6-73.5,34.7-79.7c4.1-8.2-22.5-18.4-57.2-26.6c-36.8-6.1-75.6-28.6-89.9-47c-32.7-44.9-6.1-159.4,49-218.6c42.9-45,42.9-47,4.1-81.7c-28.6-26.6-57.2-32.7-110.3-22.5c-59.3,12.3-73.6,8.2-83.8-26.6c-20.4-63.3-120.6-47-202.3,32.7c-40.9,38.8-87.9,65.4-120.6,65.4c-28.6,0-75.6,18.4-106.2,42.9c-57.2,44.9-51.1,47-83.8-53.1c-12.3-40.9-118.5-65.4-128.7-30.6c-16.4,49-87.9,104.2-149.2,116.5c-53.1,10.2-61.3,18.4-51.1,57.2c10.2,36.8-4.1,59.3-59.3,100.1c-47,36.8-71.5,71.5-71.5,106.3c0,67.4-32.7,61.3-71.5-12.3c-18.4-32.7-40.9-61.3-51.1-61.3c-12.3,0-20.4-22.5-20.4-49c0-71.5-71.5-149.2-190-204.3c-73.6-36.8-112.4-45-130.8-30.6c-12.3,12.3-34.7,16.3-44.9,10.2c-10.2-8.2-28.6,2-38.8,20.4c-16.4,30.6-22.5,30.6-47-6.1c-24.5-34.7-42.9-38.8-134.9-26.6c-59.3,6.1-122.6,26.6-143,45c-22.5,18.4-51.1,26.6-73.5,18.4c-34.7-12.3-36.8-16.4-6.1-40.9c42.9-36.8,10.2-77.7-63.3-77.7c-28.6,0-61.3-16.3-71.5-32.7c-14.3-26.6-28.6-28.6-71.5-12.3c-28.6,10.2-63.3,32.7-75.6,49c-18.4,22.5-40.9,24.5-110.3,10.2c-77.7-18.4-102.2-14.3-214.5,38.8c-69.5,32.7-132.8,53.1-141,45c-8.2-6.1,4.1-75.6,24.5-155.3c22.5-77.6,40.9-163.5,40.9-188c0-34.7,12.3-47,42.9-47c36.8,0,38.8-4.1,18.4-30.6c-20.4-24.5-20.4-30.7,0-30.7s20.4-6.1,2-28.6c-18.4-20.4-18.4-32.7-2-42.9c12.3-8.2,18.4-28.6,10.2-47c-6.1-16.4-6.1-71.5,2-120.6c12.3-83.8,16.3-87.9,87.9-89.9c77.7-2,73.6-6.1-28.6-28.6c-51.1-12.3-55.2-16.3-26.6-32.7c20.4-10.2,30.6-32.7,24.5-47c-6.1-16.4,6.1-34.7,30.6-42.9c22.5-6.1,47-28.6,53.1-49c6.1-18.4,36.8-63.3,69.5-96c69.5-71.5,130.8-185.9,114.4-212.5c-8.2-12.3,2-26.6,20.4-32.7c18.4-8.2,28.6-26.6,22.5-42.9c-16.4-38.8,40.9-122.6,91.9-134.8c34.7-10.2,36.8-6.1,14.3,22.5c-22.5,28.6-20.4,30.6,14.3,16.4c22.5-10.2,61.3-22.5,87.9-26.6c40.9-10.2,45-6.1,26.6,40.9c-12.3,30.6-12.3,59.3-4.1,65.4c10.2,6.1,14.3,28.6,8.2,51.1c-8.2,26.6,0,40.9,18.4,40.9c42.9,0,110.3,179.8,79.7,210.5c-12.3,12.3-20.4,40.9-20.4,65.4c2,38.8,4.1,38.8,12.3,2c6.1-22.5,22.5-53.1,38.8-69.5c32.7-32.7,36.8-65.4,8.2-65.4c-10.2,0-20.4-10.2-20.4-22.5c0-16.3,10.2-16.3,30.6,2c16.3,14.3,42.9,20.4,59.3,14.3c45-18.4,79.7,38.8,65.4,102.2c-22.5,92-18.4,122.6,28.6,185.9c24.5,32.7,67.4,147.1,96,251.3c26.6,104.2,67.4,214.5,89.9,245.2l38.8,53.1l110.3-36.8c61.3-18.4,130.8-55.2,153.2-77.6c42.9-42.9,96-59.3,73.6-22.5c-6.1,12.3-2,20.4,8.2,20.4c12.3,0,22.5-16.3,22.5-36.8c0-53.1,257.5-304.5,339.2-331c73.6-24.5,132.8-116.5,161.4-245.2c8.2-34.7,22.5-65.4,32.7-71.5c26.6-18.4,22.5-89.9-14.3-194.1c-49-141-28.6-396.4,40.9-506.7c28.6-47,53.1-94,53.1-106.3c0-12.3,53.1-73.6,118.5-138.9c63.3-63.3,181.9-188,263.6-275.8c94-102.2,177.8-171.6,237-196.2c49-22.5,96-53.1,102.2-71.5c6.1-16.3,42.9-38.8,79.7-49c36.8-8.2,69.5-30.6,69.5-47c2-16.3,4.1-38.8,6.1-51.1c0-14.3,18.4-28.6,40.9-34.7c20.4-4.1,53.1-38.8,71.5-75.6c38.8-77.6,40.9-102.2,12.3-102.2c-10.2,0-20.4,16.4-20.4,38.8c0,51.1-51.1,89.9-98.1,75.6c-24.5-8.2-51.1,2.1-73.6,26.6c-32.7,34.7-32.7,38.8,8.2,49c67.4,18.4,26.6,71.5-67.4,85.8c-100.1,16.4-151.2,40.9-212.5,100.1c-24.5,24.5-73.5,65.4-108.3,94c-114.4,92-286.1,269.7-275.8,284c14.3,24.5-49,104.2-81.7,104.2c-16.3,0-40.9,20.4-53.1,47C2944.3,354.1,2819.6,440,2852.3,350c20.4-57.2-91.9,49-151.2,143c-26.6,45-55.2,75.6-61.3,69.5c-4.1-6.1,30.6-63.3,79.7-126.7c47-65.4,98.1-132.8,108.3-153.2c12.3-20.4,34.7-51.1,47-67.4c14.3-18.4,24.5-47,20.4-67.4c-4.1-22.5,12.3-47,40.9-61.3c67.4-32.7,147.1-112.4,147.1-145.1c0-14.3,22.5-26.6,49-26.6c53.1,0,98.1-42.9,57.2-57.2c-42.9-14.3,55.2-167.6,106.2-167.6c12.3,0,6.1,10.2-12.3,22.5c-59.3,32.7-42.9,59.2,28.6,45c55.2-10.2,61.3-8.2,51.1,22.5c-10.2,26.6-6.1,30.7,24.5,14.3c57.2-32.7,94-85.8,96-147.1c2-49-2-55.2-32.7-38.8c-18.4,10.2-45,32.7-59.3,49c-30.6,36.8-67.4,24.5-51.1-16.3c22.5-59.2-30.6-51.1-85.8,12.3c-49,61.3-165.5,130.8-185.9,112.4c-4.1-4.1-2-24.5,6.1-42.9c10.2-26.6,28.6-30.7,71.5-22.5c32.7,8.2,59.3,6.2,61.3-4.1c6.1-63.3,20.4-98.1,47-112.4c22.5-12.3,28.6-34.7,20.4-63.3c-6.1-32.7,4.1-59.3,30.6-83.8c24.5-22.5,42.9-49,42.9-63.4c0-12.2,24.5-47,57.2-75.6c30.6-30.6,96-100.1,147.1-159.4c87.9-100.1,192.1-208.4,306.5-314.7c28.6-26.6,89.9-71.5,138.9-102.2c47-28.6,85.8-55.2,85.8-59.2c0-20.4-108.3,4.1-122.6,28.6c-10.2,14.3-24.5,20.4-32.7,12.3c-8.2-8.2,10.2-42.9,42.9-75.6c59.3-61.3,100.1-69.5,51.1-10.2c-36.8,45,12.3,38.8,57.2-6.1c22.5-22.5,69.5-49.1,108.3-63.3c122.6-42.9,181.9-73.6,181.9-94c0-22.5,100.1-75.6,120.6-61.3c8.2,4.1,12.3-16.3,10.2-44.9c0-26.6-12.3-57.2-26.6-65.4c-26.6-16.3-24.5-145.1,2-145.1c8.2,0,14.3-6.1,12.3-14.3c0-10.2,4.1-32.7,14.3-53.1c12.3-30.6,20.4-32.7,32.7-10.2c14.3,20.4,18.4,18.4,18.4-8.2c0-18.4-12.3-38.8-24.5-42.9c-16.3-6.1-12.3-12.3,10.2-12.3c18.4-2.1,38.8,0,42.9,4.1c4.1,2,24.5-10.2,45-26.6c22.5-16.3,57.2-30.7,79.7-28.6c22.5,2.1,61.3,4.1,87.9,6.1c57.2,2,57.2,30.7,0,57.2c-32.7,14.3-18.4,18.4,65.4,14.3c75.6-4.1,132.8,6.2,185.9,34.7c81.7,40.9,161.4,47,232.9,20.4c36.8-14.3,34.7-18.4-20.4-49l-61.3-32.7l104.2-2.1c77.7,0,114.4-10.2,141-40.9c42.9-47,145.1-102.2,188-102.2c16.3,0,42.9-12.3,57.2-28.6c16.3-14.3,81.7-34.7,145.1-42.9c126.7-14.3,147.1-28.6,306.5-224.8c55.2-67.4,118.5-143,141-169.6c22.5-26.6,104.2-85.8,181.9-130.8c79.7-47,190-134.8,249.3-196.1c89.9-92,114.4-108.3,155.3-96.1c42.9,12.3,42.9,12.3,12.2-12.2c-34.7-26.6-32.7-32.7,6.1-94c57.2-87.9,136.9-104.2,253.4-47c51.1,24.5,92,49,92,55.2c0,26.5-108.3,251.3-122.6,251.3c-8.2,0-71.5,36.8-141,81.7c-85.8,55.2-134.9,102.2-149.2,145.1c-14.3,38.8-47,73.6-96,96c-57.2,26.6-87.9,65.4-143,171.6c-63.3,128.7-65.4,138.9-34.7,183.9c18.4,24.5,32.7,61.3,32.7,81.7c0,51.1-92,106.2-149.2,89.9c-36.8-8.2-63.3,4.1-106.3,47c-30.6,32.7-79.7,71.5-110.4,83.8c-30.6,12.3-96,77.7-143,143c-49,67.4-98.1,122.6-106.2,122.6c-10.2,0-18.4,10.2-18.4,20.4c0,26.6-134.9,163.5-159.4,163.5c-32.7,0-85.8,73.6-85.8,116.5c0,24.5-55.2,98-126.7,173.7c-71.5,71.5-153.3,169.6-185.9,216.6c-34.7,53.1-71.5,85.8-96,85.8c-30.7,0-40.9,14.3-40.9,51.1c0,38.8-10.2,51.1-45,53.1c-26.6,0-67.4,24.5-94,55.2c-96,116.5-188,251.3-188,279.9c0,16.4-10.2,30.7-22.5,30.7c-20.4,0-20.4,49,6.1,194.1c4.1,28.6-12.3,51.1-61.3,75.6c-63.3,30.6-65.4,34.7-30.6,57.2c26.6,16.4,28.6,26.6,12.3,32.7c-14.3,6.1-26.6,36.8-26.6,65.4c0,79.7-42.9,149.2-110.3,188c-89.9,49-112.4,94-63.3,130.8c34.7,24.5,36.8,34.7,14.3,81.7c-12.3,28.6-36.8,53.1-53.1,53.1c-18.4,0-40.9,18.4-53.1,40.9c-12.3,22.5-45,65.4-73.6,96c-42.9,44.9-55.2,51.1-69.5,26.6c-12.3-16.3-20.4-22.5-20.4-12.3s-12.3,8.2-26.6-4.1c-32.7-26.6-104.2,42.9-147.1,145.1c-28.6,69.5-28.6,73.6,10.2,85.8c45,14.3,51.1,32.7,20.4,63.3c-10.2,10.2-26.6,63.3-32.7,116.5c-12.3,81.7-8.2,102.2,24.5,124.6c34.7,26.6,34.7,32.7,6.1,106.3c-28.6,73.6-28.6,85.8,4.1,138.9c26.6,42.9,30.6,69.5,16.3,102.2c-26.6,55.2,8.2,155.3,53.1,155.3c16.3,0,30.6,6.1,30.6,16.3c0,20.4,249.3,18.4,282-2c14.3-10.2,20.4-24.5,14.3-34.7c-6.1-10.2,12.3-42.9,40.9-73.6c28.6-30.6,51.1-71.5,51.1-91.9c0-20.4,26.6-51.1,57.2-67.4c30.6-16.4,67.4-53.1,81.7-81.7c16.4-34.7,47-59.3,85.8-67.4c34.7-6.1,67.4-20.4,73.6-28.6c6.1-10.2,32.7-18.4,61.3-18.4c34.7,0,49,10.2,49,38.8c0,22.5,8.2,45,18.4,51.1c10.2,6.1,24.5,45,32.7,85.8c8.2,47,26.6,77.6,49.1,83.8c20.4,6.1,49,34.7,63.3,63.3c69.5,155.3,71.5,155.3,143,159.4c38.8,2,96-8.2,126.7-24.5c30.7-16.3,85.8-28.6,122.6-28.6s96-2,128.7-4.1c40.9-4.1,59.3,2,57.2,20.4c-4.1,12.3,8.2,24.5,24.5,24.5s30.7,8.2,30.7,20.4c0,28.6,85.8,102.2,106.3,89.9c10.2-6.1,12.2-28.6,6.1-51.1c-14.3-42.9,20.4-55.2,38.8-12.3c10.2,18.4,14.3,18.4,24.5,0c6.2-14.3,22.5-20.4,36.8-14.3c14.3,6.1,40.9-12.3,59.2-38.8c40.9-63.3,181.9-136.9,259.5-136.9c49,0,61.3,8.2,61.3,42.9c0,30.6,8.2,38.8,32.7,30.6c18.4-6.1,38.8-12.3,49-12.3s24.5-18.4,30.7-40.9c14.3-47,128.7-57.2,169.6-16.3c18.4,18.4,24.5,14.3,24.5-22.5c0-28.6,8.2-40.9,22.5-30.6c12.3,6.1,30.7,0,40.9-14.3c14.3-22.5,24.5-24.5,59.3-2c22.5,14.3,40.9,18.4,40.9,8.2c0-22.5,98.1-26.6,112.4-4.1c20.4,32.7,83.8,22.5,122.6-20.4c20.4-22.5,49.1-40.9,61.3-40.9c14.3,0,49-18.4,77.6-40.9c28.6-22.5,69.5-40.9,92-40.9c47,0,106.3,61.3,106.3,108.3c0,18.4,14.3,34.7,30.6,34.7c16.3,0,30.7,12.3,30.7,28.6c0,38.8,34.7,59.3,67.4,38.8c12.3-8.2,40.9-12.3,61.3-10.2c22.5,4.1,34.7-6.1,34.7-32.7c0-53.1,40.9-83.8,114.4-89.9c73.6-4.1,116.5,18.4,102.2,57.2c-6.1,14.3,6.1,36.8,28.6,49c30.6,16.3,49,10.2,91.9-28.6c42.9-38.8,67.4-47,122.6-38.8c59.3,10.2,79.7,2,128.7-51.1c42.9-47,71.5-59.3,104.2-51.1c34.7,8.2,40.9,20.4,30.6,55.2c-12.3,36.8-10.2,38.8,20.4,14.3c24.5-20.4,32.7-20.4,32.7-2.1c0,20.4,6.1,20.4,28.6,2.1c22.5-18.4,30.6-18.4,38.8,2c4.1,14.3,16.3,20.4,24.5,12.3c8.2-8.2,4.1-28.6-10.2-47c-20.4-24.5-20.4-30.7,8.2-30.7c20.4,0,32.7,16.3,32.7,42.9c0,24.5,10.2,38.8,26.6,32.7c12.3-4.1,22.5-30.6,18.4-59.3c-4.1-38.8,4.1-55.2,34.7-63.3c26.6-6.1,42.9-26.6,42.9-53.1c0-30.6,12.3-40.9,42.9-36.8c34.7,4.1,45-8.2,51.1-61.3c6.2-49,0-67.4-22.5-67.4c-55.2,0-32.7-57.2,49-120.6c67.4-53.1,96-63.3,196.2-63.3c96,0,114.4,6.1,104.2,30.6c-40.9,104.2-42.9,98.1,36.8,83.8c57.2-10.2,77.6-6.1,85.8,16.3c6.1,16.4,28.6,36.8,51.1,42.9c20.4,8.2,38.8,30.6,38.8,53.1c0,30.6-10.2,38.8-34.7,30.6c-20.4-6.1-51.1-2-67.4,8.2c-26.6,18.4-26.6,22.5-2,38.8c32.7,22.5,44.9,177.8,18.4,232.9c-10.2,20.4-14.3,51.1-8.2,69.5c10.2,24.5,18.4,26.6,42.9,6.1c45-38.8,118.5,30.6,102.2,96c-12.3,53.1,4.1,59.3,59.3,16.3c53.1-40.9,116.5-40.9,102.2,0c-16.4,42.9,26.6,38.8,87.9-10.2c55.2-42.9,138.9-55.2,159.4-22.5c6.1,10.2,0,42.9-12.2,71.5c-22.5,47-36.8,53.1-126.7,53.1c-138.9,0-378,108.3-394.4,177.8c-8.2,32.7-32.7,53.1-67.4,59.3c-77.6,16.3-132.8,61.3-118.5,100.1c8.2,16.3,26.6,30.6,45,30.6c38.8,0,38.8,28.6-2,61.3c-16.4,16.3-28.6,51.1-24.5,79.7c6.1,47,14.3,53.1,79.7,47c98.1-8.2,126.7,47,42.9,83.8c-30.7,12.3-61.3,32.7-69.5,45c-10.2,12.3-22.5,12.3-40.9-6.1c-34.7-34.7-98.1-30.6-98.1,6.1c0,16.3-14.3,30.6-30.7,30.6c-38.8,0-38.8,28.6,0,67.4c16.3,16.4,22.5,34.7,16.3,42.9c-8.2,6.1-2,12.3,10.2,12.3c12.3,0,18.4,14.3,12.3,30.6c-8.2,18.4,0,30.6,20.4,30.6c44.9,0,40.9,18.4-12.3,77.6l-47,49l47-12.3c38.8-12.3,45-8.2,45,36.8c0,28.6-6.1,53.1-14.3,55.2c-10.2,0-40.9,4.1-71.5,6.1c-30.6,2-67.4,14.3-79.7,26.6c-28.6,28.6-6.1,69.5,30.7,55.2c36.8-14.3,61.3,53.1,30.6,81.7c-16.4,16.3-26.6,16.3-32.7-2.1c-16.3-44.9-47-28.6-47,24.5c0,32.7,12.2,51.1,30.6,51.1c36.8,0,38.8,24.5,6.1,57.2c-20.4,20.4-20.4,30.6,4.1,45c22.5,14.3,12.3,18.4-34.7,14.3c-36.8-2-67.4-14.3-67.4-28.6c0-42.9-28.6-42.9-116.5-2c-98.1,47-116.5,38.8-173.7-87.9c-40.9-83.8-87.9-130.8-159.4-151.2c-28.6-8.2-71.5-34.7-96-57.2c-42.9-38.8-51.1-38.8-102.2-12.3c-38.8,20.4-55.2,22.5-61.3,6.1c-8.2-24.5-157.3-2-200.2,30.6c-28.6,24.5-157.3,24.5-185.9,0c-16.4-14.3-49-10.2-100.1,12.3c-87.9,34.7-216.6,40.9-249.3,8.2c-16.3-16.3-30.6-12.3-49,16.4c-16.4,20.4-36.8,38.8-49.1,40.9c-10.2,4.1-69.5,22.5-130.8,44.9c-92,32.7-114.4,51.1-145.1,118.5c-38.8,89.9-67.4,106.2-204.3,128.7c-63.3,10.2-98.1,8.2-112.4-10.2c-16.3-20.4-34.7-20.4-89.9,4.1c-65.4,26.6-67.4,30.6-30.6,59.3c36.8,30.6,36.8,30.6-6.1,22.5c-28.6-6.1-65.4,8.2-102.2,38.8c-30.7,26.6-45,49-30.7,49c12.3,0,24.5,10.2,24.5,22.5c0,10.2-8.2,14.3-20.4,8.2c-18.4-10.2-30.7,30.6-22.5,77.6c2,8.2-12.3,20.4-28.6,26.6c-16.3,8.2-30.6,24.5-30.6,40.9s-14.3,28.6-30.6,28.6c-18.4,0-30.7,18.4-30.7,49c0,40.9-28.6,63.3-173.7,134.9c-185.9,91.9-275.8,175.7-275.8,255.4c0,49-94,138.9-149.2,145.1c-67.4,6.1-112.4,36.8-145.1,100.1c-30.7,55.2-57.2,73.6-136.9,91.9c-55.2,14.3-120.6,40.9-147.1,61.3c-26.6,20.4-73.6,45-102.2,51.1c-30.7,8.2-61.3,22.5-67.4,32.7C5177.6,4585.8,5149,4575.6,5126.5,4532.7z M9137.5,2781.6c-14.3-4.1-38.8-4.1-51.1,0c-14.3,6.1-4.1,10.2,24.5,10.2C9139.5,2791.8,9149.8,2787.7,9137.5,2781.6z M3003.5,194.8c26.6-26.6,63.3-53.1,79.7-59.3c24.5-8.2,47-98.1,22.5-98.1c-4.1,0-53.1,47-104.2,102.2C2905.4,241.7,2907.5,282.6,3003.5,194.8z M4564.6-1313.2c-6.1-8.2,2-20.4,14.3-24.5c16.3-6.2,12.3-12.3-10.2-12.3c-26.6-2.1-32.7,8.2-22.5,47c6.1,26.6,2,53.1-8.2,61.3c-10.2,6.2-14.3,36.8-8.2,67.4c10.2,51.1,14.3,49,28.6-32.7C4566.6-1256,4568.7-1303,4564.6-1313.2z M4403.2-1313.2c6.1-10.2,34.7-14.3,65.4-8.2l55.2,10.2l-55.2-22.5c-32.7-12.3-57.2-30.7-57.2-40.9s-14.3-18.4-30.6-18.4c-34.7,0-40.9-32.7-10.2-51.1c28.6-18.4,65.4-91.9,47-91.9c-8.2,0-36.8,32.7-63.3,71.5c-24.5,38.8-36.8,71.5-24.5,71.5c28.6,0,26.6,67.4-2,96.1c-18.4,18.4-12.3,20.4,20.4,12.3C4372.5-1290.7,4397-1303,4403.2-1313.2z"/><path d="M136.8,2720.3c-20.4-4.1-36.8-24.5-36.8-40.9c0-28.6,6.1-28.6,40.9,4.1c34.7,30.6,53.1,57.2,36.8,49C173.6,2730.5,155.2,2726.4,136.8,2720.3z"/><path d="M2335.4,1729.3c0-14.3-6.1-75.6-14.3-134.8c-14.3-96-20.4-106.3-55.2-96c-24.5,8.2-40.9,4.1-40.9-12.3c0-12.3-14.3-34.7-32.7-49c-26.6-18.4-28.6-32.7-12.3-65.4c26.6-47,157.3-116.5,188-98.1c38.8,24.5,104.2-12.3,91.9-51.1c-8.2-26.6,8.2-47,71.5-79.7c98.1-51.1,122.6-53.1,122.6-12.3c0,16.3,18.4,30.6,38.8,30.6c65.4,0,65.4,32.7,2,100.1c-34.7,34.7-61.3,77.7-61.3,96c0,20.4-10.2,28.6-30.6,20.4c-38.8-14.3-94,67.4-87.9,132.8c4.1,36.8-4.1,51.1-40.9,55.2c-32.7,6.1-45,16.3-36.8,36.8c6.1,16.3-2,51.1-18.4,77.6c-16.3,24.5-24.5,53.1-16.3,59.3c6.1,8.2-6.1,14.3-28.6,14.3C2349.7,1753.8,2333.3,1741.5,2335.4,1729.3z"/><path d="M1943.1,1535.1c-26.6-55.2-28.6-75.6-8.2-81.7c12.3-6.1,24.5-22.5,24.5-36.8c0-16.3,18.4-38.8,40.9-51.1c26.6-14.3,40.9-42.9,40.9-77.6c0-32.7,10.2-67.4,24.5-81.7c30.6-30.6,42.9-188,14.3-188c-10.2,0-44.9,24.5-73.6,57.2l-53.1,55.2l14.3-81.7c10.2-45,20.4-108.3,26.6-143c6.1-32.7,24.5-69.5,38.8-77.6c16.3-8.2,28.6-42.9,28.6-75.6c0-34.7,10.2-61.3,20.4-61.3c12.3,0,20.4-28.6,20.4-61.3c0-57.2,47-145.1,116.5-220.7c22.5-22.5,34.7-22.5,71.5,4.1c24.5,18.4,34.7,32.7,22.5,32.7c-32.7,0-106.2,151.2-106.2,218.6c0,30.6-2,141-4.1,241.1c0,102.2,2,206.4,6.1,235c4.1,34.7-4.1,51.1-24.5,51.1c-42.9,0-130.8,190-132.8,286.1C2047.3,1627.1,2000.3,1653.7,1943.1,1535.1z"/><path d="M2278.2,1185.8c-6.1-12.3,2-26.6,20.4-32.7c47-18.4,57.2-4.1,20.4,26.6C2302.7,1193.9,2284.3,1196,2278.2,1185.8z"/><path d="M1101.2,1046.8c0-16.3,10.2-24.5,20.4-18.4c12.3,8.2,16.3,22.5,10.2,32.7C1113.5,1089.7,1101.2,1083.6,1101.2,1046.8z"/><path d="M2674.6,1063.2c0-10.2,22.5-28.6,51.1-40.9c59.3-28.6,69.5,4.1,12.3,36.8C2688.9,1083.6,2674.6,1085.6,2674.6,1063.2z"/><path d="M2633.7,956.9c0-12.3,14.3-20.4,30.6-20.4s30.6,4.1,30.6,8.2c0,4.1-14.3,12.3-30.6,20.4C2648,971.2,2633.7,967.1,2633.7,956.9z"/><path d="M2590.8,834.3c18.4-28.6,22.5-42.9,8.2-34.7c-14.3,10.2-26.6,8.2-26.6-4.1s-14.3-16.4-30.6-10.2c-45,18.4-36.8-28.6,8.2-53.1c22.5-10.2,59.3-20.4,83.8-20.4c24.5,0,69.5-26.6,98.1-61.3c30.6-32.7,61.3-61.3,69.5-61.3c38.8,0,10.2,65.4-71.5,155.3c-49,55.2-85.8,110.3-81.7,122.6c4.1,14.3-12.3,22.5-40.9,20.4C2560.1,885.4,2558.1,883.3,2590.8,834.3z"/><path d="M2020.7,542.1c0-26.6,14.3-65.4,30.6-87.9c18.4-24.5,24.5-61.3,16.3-108.3c-10.2-61.3-8.2-67.4,24.5-55.2c20.4,6.1,49,2.1,65.4-12.3c18.4-14.3,14.3,4.1-12.3,45c-22.5,38.8-42.9,106.3-42.9,147.1c0,55.2-12.3,81.7-40.9,98.1C2026.8,587.1,2020.7,585,2020.7,542.1z"/><path d="M1879.7,519.6c-32.7-38.8-20.4-118.5,18.4-130.8c24.5-8.2,26.6-4.1,6.1,18.4c-14.3,14.3-26.6,42.9-26.6,61.3c0,20.4,12.3,38.8,26.6,44.9c12.3,4.1,18.4,14.3,12.3,22.5C1910.4,544.2,1892,536,1879.7,519.6z"/><path d="M2204.6,186.6c61.3-77.6,108.3-102.1,98.1-53.1c-4.1,18.4-38.8,53.1-77.6,75.6l-71.5,42.9L2204.6,186.6z"/><path d="M2883,19c4.1-16.3,30.6-42.9,59.3-61.3c38.8-22.5,42.9-24.5,18.4,0c-16.3,16.3-42.9,42.9-59.3,59.2C2878.9,41.5,2876.8,41.5,2883,19z"/><path d="M2684.8-48.4c-22.5-67.5-18.4-104.2,14.3-124.6c40.9-26.6,69.5-8.2,44.9,30.7c-10.2,14.3-14.3,40.9-12.3,61.3C2739.9-40.2,2699.1-11.6,2684.8-48.4z"/><path d="M2525.4-58.6c-6.1-10.2,6.1-40.9,28.6-67.4l40.9-51.1l-12.3,51.1C2564.2-64.8,2539.7-34.1,2525.4-58.6z"/><path d="M2406.9-195.5c26.6-32.7,104.2-83.8,104.2-67.4c0,4.1-30.6,28.6-65.4,55.2C2402.8-177.1,2388.5-173,2406.9-195.5z"/><path d="M2643.9-328.3c-12.3-22.5,18.4-47,38.8-28.6c18.4,18.4,14.3,47-6.1,47C2664.3-310,2652.1-318.1,2643.9-328.3z"/><path d="M2715.4-389.6c0-18.4,122.6-104.2,151.2-104.2c6.1,0,12.3,10.2,12.3,20.4c0,12.3-10.2,20.4-22.5,20.4c-12.3,0-49,18.4-81.7,42.9C2742-387.6,2715.4-377.4,2715.4-389.6z"/><path d="M2985.1-573.5c59.3-75.6,91.9-89.9,106.2-51.1c6.1,18.4,2,24.5-8.2,18.4c-10.2-6.1-42.9,10.2-69.5,38.8C2948.4-493.8,2925.9-500,2985.1-573.5z"/><path d="M2825.8-618.5c0-20.4,10.2-38.8,22.5-38.8c34.7,0,181.9-163.5,243.1-265.6c73.6-124.6,106.3-165.5,139-169.6c14.3-4.1,49-20.4,75.6-38.8c96-67.5,65.4-20.4-87.9,134.8c-85.8,85.8-155.3,165.5-155.3,177.8c0,14.3-42.9,65.4-96,114.4C2823.7-571.5,2825.8-573.5,2825.8-618.5z"/><path d="M3142.5-630.7c40.9-73.6,179.8-210.5,212.5-210.5c20.4,0,34.7-8.2,34.7-20.4c0-10.2,10.2-20.4,22.5-20.4c12.3,0-12.3,38.8-55.2,87.9C3265.1-692,3109.8-573.5,3142.5-630.7z"/><path d="M3144.5-769.7c2-30.6,98.1-143,112.4-128.7c6.1,6.1-16.3,42.9-49,79.7C3173.1-781.9,3144.5-759.5,3144.5-769.7z"/><path d="M3444.9-931.1c36.8-63.4,163.5-188,216.6-210.4c85.8-38.8,85.8-32.7,12.3,51.1C3561.3-961.7,3395.8-847.3,3444.9-931.1z"/><path d="M3487.8-1219.2c73.6-61.3,96-65.4,61.3-12.3c-14.3,22.5-30.6,36.8-38.8,30.7c-8.2-4.1-20.4,0-28.6,12.3c-6.1,10.2-22.5,20.4-32.7,20.4C3436.7-1168.1,3455.1-1190.6,3487.8-1219.2z"/><path d="M3408.1-1245.8c24.5-45,145.1-147.1,173.7-147.1c12.3,0-22.5,40.9-77.6,92C3395.8-1200.8,3377.4-1190.6,3408.1-1245.8z"/><path d="M4084.4-1554.3c0-10.2,14.3-30.6,34.7-45c30.6-26.6,30.6-24.5,8.2,18.4C4102.8-1533.9,4084.4-1523.7,4084.4-1554.3z"/><path d="M4329.6-1607.5c14.3-18.4,30.6-26.5,34.7-22.5c14.3,14.3-14.3,53.1-38.8,53.1C4313.3-1576.8,4313.3-1589.1,4329.6-1607.5z"/><path d="M3994.5-1658.5c24.5-10.2,51.1-26.5,59.3-38.8c6.1-12.3,28.6-22.5,47-22.5c24.5,0,14.3,12.3-26.6,40.9c-32.7,22.5-75.6,40.9-91.9,38.8C3963.9-1640.1,3970-1648.3,3994.5-1658.5z"/><path d="M4983.5-2007.9c0-12.3-18.4-18.4-40.9-12.3c-22.5,6.1-36.8,4.1-30.6-6.1c6.1-8.2,67.4-16.3,136.9-16.3c120.5-2.1,126.7,0,77.6,26.5C5065.2-1981.3,4983.5-1977.3,4983.5-2007.9z"/><path d="M4779.1-2128.5c-16.3-10.2-24.5-24.5-18.4-30.6c16.3-16.3,79.7,10.2,79.7,32.7C4840.4-2103.9,4818-2103.9,4779.1-2128.5z"/><path d="M4901.7-2240.9c0-16.3,16.3-30.6,36.8-30.6c18.4,0,79.7-24.5,134.9-53.1c53.1-28.6,102.2-49,106.2-42.9c4.1,4.1-10.2,32.7-34.7,63.3c-24.5,30.7-49,51.1-53.1,45c-6.1-6.1-24.5,2.1-40.9,18.4C5010-2200,4901.7-2200,4901.7-2240.9z"/><path d="M5267.5-2289.9c14.3-24.5,12.3-45-2.1-59.2c-14.3-14.3-16.3-24.6-4.1-24.6c10.2,0,4.1-8.2-12.3-20.4c-24.5-14.3-22.5-20.4,10.2-32.7c22.5-8.2,67.4-34.7,98.1-57.2c51.1-38.8,85.8-42.9,294.2-40.9s239.1,8.2,277.9,45c34.7,34.7,36.8,47,14.3,73.5c-14.3,18.4-47,32.7-75.6,32.7c-28.6,0-42.9,8.2-36.8,20.4c6.1,12.3-4.1,20.4-24.5,22.5c-20.4,0-51.1,4.1-67.4,8.2c-16.3,2.1-81.7,16.4-143,28.6s-165.5,26.6-230.9,32.7C5257.3-2253.1,5249.1-2255.2,5267.5-2289.9z"/><path d="M5402.4-2618.9c8.2-12.2,20.4-16.3,28.6-12.2c8.2,6.1,24.5-8.2,38.8-30.7c30.7-47,6.1-49.1-73.5-4.1c-51.1,28.6-67.4,30.6-124.7,6.1c-59.2-22.5-61.3-28.6-28.6-51.1c20.4-12.2,102.2-42.9,179.8-67.4c116.5-34.8,220.7-47,557.8-57.2c306.5-10.2,412.7-8.2,412.7,8.2c0,16.3-36.8,24.5-96,24.5c-55.2,0-132.8,10.2-173.7,20.4c-40.9,12.3-159.4,24.6-263.6,28.6c-175.7,6.2-190,10.2-230.9,63.3c-28.6,36.8-65.4,57.2-100.1,57.2c-30.7,0-61.3,6.1-67.4,16.3c-6.2,10.2-24.5,18.4-40.9,18.4C5404.4-2598.4,5396.2-2608.7,5402.4-2618.9z"/><path d="M5146.9-2741.5c16.3-10.2,40.9-20.4,51.1-20.4c12.2,0,6.1,10.2-10.2,20.4c-16.3,10.2-38.8,20.4-51.1,20.4C5126.5-2721,5130.6-2731.3,5146.9-2741.5z"/><path d="M5616.9-2892.7c0-18.4,61.3-28.6,71.5-12.3c8.2,12.3-6.1,20.4-28.6,20.4C5635.3-2884.5,5616.9-2888.6,5616.9-2892.7z"/><path d="M4701.5-2949.9c-30.6-30.7-32.7-63.3,0-45c16.3,10.2,18.4,0,10.2-32.7c-12.3-44.9-8.2-44.9,94-32.7c73.6,10.2,116.5,28.6,141,59.3c38.8,49,8.2,89.9-38.8,51.1c-18.4-14.3-26.6-14.3-26.6,2C4881.3-2917.2,4732.2-2919.2,4701.5-2949.9z"/><path d="M6154.3-3035.7c0-61.3,69.5-96,214.6-106.3c61.3-4.1,122.6-16.4,134.9-28.6c49-38.8,218.6-122.6,232.9-114.4c22.5,14.3,92-44.9,77.6-65.4c-6.1-10.2,32.7-34.8,85.8-53.2c53.1-20.4,114.4-44.9,136.9-53.1c196.1-87.8,253.4-100.1,212.5-47c-26.6,34.7-26.6,34.7,24.5,2c32.7-20.4,73.6-28.6,100.1-22.5c30.7,8.1,53.1,2,65.4-22.5c10.2-18.4,26.6-28.6,38.8-22.5c10.2,8.2,18.4,0,18.4-14.3c0-34.8,183.9-183.9,212.5-173.7c32.7,10.2,98.1-63.3,67.4-73.6c-14.3-6.1,4.1-20.4,36.8-32.7c34.7-12.3,77.6-32.7,98.1-42.9c20.4-12.3,45-16.3,53.1-10.2c10.2,4.1,28.6-4.1,40.9-18.4c18.4-22.5,18.4-32.7,2-42.9c-32.7-20.4,63.3-116.5,198.2-198.2c59.2-36.8,108.3-73.6,108.3-81.7c0-8.2,12.3-16.4,28.6-16.4c14.3,0,40.9-20.4,59.2-44.9c16.3-26.6,36.8-40.9,47-30.6c8.2,8.2-12.3,44.9-44.9,81.7c-47,51.1-61.3,81.7-57.2,143c2.1,59.3-10.2,91.9-57.2,141c-53.1,57.2-65.4,61.3-149.2,51.1c-79.7-12.3-94-8.2-128.7,36.8c-22.5,28.6-51.1,51.1-63.3,51.1c-26.6,0-104.2,73.6-104.2,98.1c0,16.3-110.4,106.2-130.8,106.2c-4.1,0-36.8,28.6-69.5,61.3c-34.7,34.8-81.7,61.3-106.3,61.3c-30.6,0-40.9,10.2-34.7,28.6c6.1,16.4-2,40.9-18.4,53.1c-16.4,14.3-28.6,40.9-28.6,61.3c0,47-73.5,114.4-85.8,77.7c-8.2-22.5-18.4-22.5-61.3,0c-71.5,38.8-149.2,24.5-149.2-26.6c0-26.5,12.2-40.9,34.7-38.8c20.4,2.1,28.6-8.1,22.5-24.5c-8.2-22.5-18.4-24.5-38.8-6.1c-16.4,12.3-28.6,16.4-28.6,8.2c0-10.2-16.3-2-34.7,14.3c-55.2,49-169.6,102.2-169.6,79.6c0-12.2-22.5-12.2-61.3,0c-32.7,12.3-61.3,34.8-61.3,51.1c0,63.4-337.1,192.1-508.8,192.1c-53.1,0-106.2,12.3-124.6,30.6C6156.3-2986.7,6154.3-2988.7,6154.3-3035.7z"/><path d="M5596.5-3127.6c0-12.3,20.4-32.7,47-42.9c30.6-12.2,34.7-18.4,12.3-18.4c-18.4-2-45-14.3-57.2-30.6c-18.4-22.5,0-30.7,94-49c241.1-47,265.6-47,341.2-10.2c63.3,30.7,87.9,30.7,165.5,10.2c106.3-28.6,194.1-32.7,194.1-8.2c0,89.9-237,153.2-400.5,110.3c-83.8-22.5-112.4-18.4-349.4,49C5614.9-3109.3,5596.5-3113.3,5596.5-3127.6z"/><path d="M4585-3150.1c-6.1-10.2-2-20.4,8.2-20.4c12.3,0,22.5,10.2,22.5,20.4c0,12.3-4.1,20.4-8.2,20.4C4601.4-3129.7,4591.2-3137.9,4585-3150.1z"/><path d="M6659-3548.6c-20.4-24.5-20.4-32.7,2-38.8c28.6-8.1,112.4-28.6,151.2-34.7c12.2-2,42.9-12.2,71.5-22.5c114.4-45,408.7-112.4,388.2-87.9c-10.2,12.2-59.3,34.8-106.3,49c-49,12.3-106.3,32.7-128.7,42.9c-77.6,32.7-243.2,81.7-279.9,81.7c-20.4,0-36.8,10.2-36.8,20.4C6720.3-3507.7,6687.6-3513.8,6659-3548.6z"/><path d="M5821.2-3599.7c0-10.2,10.2-20.4,20.4-20.4c12.2,0,18.4-10.2,16.3-24.5c-8.2-30.7,106.3-38.8,143-10.2c51.1,38.8,22.5,65.4-77.6,71.5C5864.1-3581.3,5821.2-3587.4,5821.2-3599.7z"/><path d="M7435.4-3658.9c0-26.5,98.1-85.8,110.4-65.4c6.1,10.2-10.2,32.7-38.8,51.1C7449.7-3636.4,7435.4-3632.3,7435.4-3658.9z"/><path d="M7568.2-3783.6c8.2-12.3,22.5-16.3,32.7-10.2c28.6,18.4,22.5,30.6-14.3,30.6C7570.3-3763.1,7562.1-3773.3,7568.2-3783.6z"/></g></g>
</svg>